<?xml version="1.0" encoding="UTF-8" standalone="no"?>
<svg
   width="200.00021"
   height="199.73312"
   viewBox="0 0 200.00021 199.73312"
   version="1.1"
   xml:space="preserve"
   style="clip-rule:evenodd;fill-rule:evenodd;stroke-linejoin:round;stroke-miterlimit:1.41421"
   id="svg12"
   sodipodi:docname="painless-panes-logo.svg"
   inkscape:version="1.3 (1:1.3+202307231459+0e150ed6c4)"
   xmlns:inkscape="http://www.inkscape.org/namespaces/inkscape"
   xmlns:sodipodi="http://sodipodi.sourceforge.net/DTD/sodipodi-0.dtd"
   xmlns:xlink="http://www.w3.org/1999/xlink"
   xmlns="http://www.w3.org/2000/svg"
   xmlns:svg="http://www.w3.org/2000/svg"><defs
   id="defs12"><linearGradient
   id="linearGradient2261"
   inkscape:collect="always"><stop
     id="stop2263"
     style="stop-color:#ffffff"
     offset="0" /><stop
     id="stop2265"
     style="stop-color:#ffffff;stop-opacity:0"
     offset="1" /></linearGradient>&#10;        &#10;    &#10;            &#10;            &#10;        &#10;                &#10;                &#10;                &#10;                &#10;                &#10;            &#10;                &#10;                &#10;                &#10;                &#10;                &#10;            &#10;                    &#10;                &#10;                    &#10;                &#10;                    &#10;                &#10;                    &#10;                &#10;                    &#10;                &#10;                    &#10;                &#10;                    &#10;                &#10;                    &#10;                <linearGradient
   id="linearGradient5539"><stop
     id="stop5541"
     style="stop-color:#000000"
     offset="0" /><stop
     id="stop5549"
     style="stop-color:#272727"
     offset="1" /><stop
     id="stop5543"
     style="stop-color:#626262"
     offset="1" /></linearGradient><linearGradient
   id="linearGradient4784"><stop
     id="stop4786"
     style="stop-color:#cccccc"
     offset="0" /><stop
     id="stop4792"
     style="stop-color:#989898"
     offset=".72581" /><stop
     id="stop4788"
     style="stop-color:#a9a9a9"
     offset="1" /></linearGradient><linearGradient
   id="linearGradient4642"><stop
     id="stop4644"
     style="stop-color:#000000"
     offset="0" /><stop
     id="stop4650"
     style="stop-color:#ffffff"
     offset=".93641" /><stop
     id="stop6010"
     style="stop-color:#929292"
     offset=".96820" /><stop
     id="stop6012"
     style="stop-color:#838383"
     offset=".98410" /><stop
     id="stop4646"
     style="stop-color:#404040"
     offset="1" /></linearGradient><filter
   id="filter7092"
   inkscape:collect="always"
   color-interpolation-filters="sRGB"
   x="-0.013005857"
   y="-0.011138613"
   width="1.0260117"
   height="1.0222772"><feGaussianBlur
     id="feGaussianBlur7094"
     stdDeviation="0.50562442"
     inkscape:collect="always" /></filter><filter
   id="filter9916"
   inkscape:collect="always"
   color-interpolation-filters="sRGB"
   x="-0.016652214"
   y="-0.009379547"
   width="1.0333044"
   height="1.0187591"><feGaussianBlur
     id="feGaussianBlur9918"
     stdDeviation="0.32402324"
     inkscape:collect="always" /></filter><filter
   id="filter9928"
   inkscape:collect="always"
   color-interpolation-filters="sRGB"
   x="-0.051159206"
   y="-0.015491355"
   width="1.1023184"
   height="1.0309827"><feGaussianBlur
     id="feGaussianBlur9930"
     stdDeviation="0.2621564"
     inkscape:collect="always" /></filter><filter
   id="filter4669"
   height="1.0896879"
   width="1.2987373"
   color-interpolation-filters="sRGB"
   y="-0.044843937"
   x="-0.14936867"
   inkscape:collect="always"><feGaussianBlur
     id="feGaussianBlur4671"
     stdDeviation="0.84900784"
     inkscape:collect="always" /></filter><filter
   id="filter4694"
   inkscape:collect="always"
   color-interpolation-filters="sRGB"
   x="-0.075275314"
   y="-0.051299462"
   width="1.1505506"
   height="1.1025989"><feGaussianBlur
     id="feGaussianBlur4696"
     stdDeviation="1.2617957"
     inkscape:collect="always" /></filter><linearGradient
   id="linearGradient6478"
   y2="408.53"
   gradientUnits="userSpaceOnUse"
   x2="86.028999"
   gradientTransform="matrix(1.0707064,-0.2868849,1.3575913,0.7838215,-713.01842,-569.96579)"
   y1="372.45001"
   x1="86.028999"
   inkscape:collect="always"><stop
     id="stop5435"
     style="stop-color:#dec800"
     offset="0" /><stop
     id="stop4732"
     style="stop-color:#b5a10a"
     offset=".38554" /><stop
     id="stop5437"
     style="stop-color:#a49a00"
     offset=".70268" /><stop
     id="stop4730"
     style="stop-color:#e7cd00"
     offset="1" /></linearGradient><linearGradient
   id="linearGradient6480"
   y2="250.53999"
   xlink:href="#linearGradient4642"
   spreadMethod="reflect"
   gradientUnits="userSpaceOnUse"
   x2="65.685997"
   y1="242.81"
   x1="180.28999"
   inkscape:collect="always"
   gradientTransform="matrix(2.3611926,0,0,2.3611926,-304.05986,-867.97191)" /><radialGradient
   id="radialGradient6482"
   xlink:href="#linearGradient4642"
   gradientUnits="userSpaceOnUse"
   cy="871.33002"
   cx="-56.264999"
   gradientTransform="matrix(2.1938549,-0.59405245,0.47925126,1.7699264,-396.98696,-1891.1239)"
   r="28.986"
   inkscape:collect="always" /><radialGradient
   id="radialGradient6484"
   xlink:href="#linearGradient4784"
   gradientUnits="userSpaceOnUse"
   cy="904.59998"
   cx="-55.661999"
   gradientTransform="matrix(1.1084855,0,0,0.53523514,-54.340131,-772.34361)"
   r="4.836"
   inkscape:collect="always" /><radialGradient
   id="radialGradient6486"
   xlink:href="#linearGradient4784"
   gradientUnits="userSpaceOnUse"
   cy="906.60999"
   cx="-63.439999"
   gradientTransform="matrix(1.1084855,0,0,0.53523514,-54.340131,-771.19135)"
   r="4.836"
   inkscape:collect="always" /><linearGradient
   id="linearGradient6488"
   y2="903.96997"
   xlink:href="#linearGradient4784"
   gradientUnits="userSpaceOnUse"
   x2="-50.826"
   gradientTransform="matrix(1.1084855,0,0,1.1084855,-54.340131,-1290.9087)"
   y1="903.96997"
   x1="-60.498001"
   inkscape:collect="always" /><linearGradient
   id="linearGradient6490"
   y2="906.03003"
   xlink:href="#linearGradient4784"
   gradientUnits="userSpaceOnUse"
   x2="-58.604"
   gradientTransform="matrix(1.1084855,0,0,1.1084855,-54.340131,-1290.9087)"
   y1="906.03003"
   x1="-68.276001"
   inkscape:collect="always" /><radialGradient
   id="radialGradient6492"
   gradientUnits="userSpaceOnUse"
   cy="121.69"
   cx="447.29001"
   gradientTransform="matrix(4.1195727,1.2916196,-1.0760663,3.4319934,-1750.3848,-1424.8663)"
   r="44.789001"
   inkscape:collect="always"><stop
     id="stop4825"
     style="stop-color:#dec800"
     offset="0" /><stop
     id="stop4827"
     style="stop-color:#b5a10a"
     offset=".57023" /><stop
     id="stop4829"
     style="stop-color:#a49a00"
     offset=".69979" /><stop
     id="stop4831"
     style="stop-color:#e7cd00"
     offset="1" /></radialGradient><radialGradient
   id="radialGradient6494"
   xlink:href="#linearGradient5539"
   gradientUnits="userSpaceOnUse"
   cy="92.353996"
   cx="512.91998"
   gradientTransform="matrix(1,0,0,1.7504,0,-69.303)"
   r="24.127001"
   inkscape:collect="always" /><linearGradient
   id="linearGradient6496"
   y2="611.02002"
   xlink:href="#linearGradient5539"
   spreadMethod="reflect"
   gradientUnits="userSpaceOnUse"
   x2="1078.3"
   gradientTransform="matrix(1.0298814,0,0,1.0190907,-703.17225,-1035.4112)"
   y1="487.26999"
   x1="991.67999"
   inkscape:collect="always" /><linearGradient
   id="linearGradient6498"
   y2="466.42001"
   gradientUnits="userSpaceOnUse"
   x2="1036.7"
   gradientTransform="matrix(1.0298814,0,0,1.0190907,-703.17225,-1035.4112)"
   y1="305.48999"
   x1="964.84003"
   inkscape:collect="always"><stop
     id="stop7037"
     style="stop-color:#000000;stop-opacity:0"
     offset="0" /><stop
     id="stop7039"
     style="stop-color:#000000;stop-opacity:0"
     offset="1" /></linearGradient><linearGradient
   id="linearGradient6502"
   y2="569.42999"
   gradientUnits="userSpaceOnUse"
   x2="802.35999"
   gradientTransform="matrix(1.0396803,0,0,1.0043569,-708.36689,-1026.9463)"
   y1="597.5"
   x1="788.83002"
   inkscape:collect="always"><stop
     id="stop7938"
     style="stop-color:#000000"
     offset="0" /><stop
     id="stop7940"
     style="stop-color:#272727"
     offset=".18027" /><stop
     id="stop7942"
     style="stop-color:#333333"
     offset="1" /></linearGradient><linearGradient
   id="linearGradient6504"
   y2="598.14001"
   xlink:href="#linearGradient5539"
   gradientUnits="userSpaceOnUse"
   x2="813.46997"
   gradientTransform="matrix(1.3027,0,0,1.3027,-247.31,-183.87)"
   y1="605.56"
   x1="823.94"
   inkscape:collect="always" /><radialGradient
   id="radialGradient6512"
   xlink:href="#linearGradient2261"
   gradientUnits="userSpaceOnUse"
   cy="128.22"
   cx="499.13"
   gradientTransform="matrix(1,0,0,2.7887,0,-229.35)"
   r="8.8509998"
   inkscape:collect="always" /></defs><sodipodi:namedview
   id="namedview12"
   pagecolor="#ffffff"
   bordercolor="#999999"
   borderopacity="1"
   inkscape:showpageshadow="0"
   inkscape:pageopacity="0"
   inkscape:pagecheckerboard="0"
   inkscape:deskcolor="#d1d1d1"
   inkscape:zoom="3.4539683"
   inkscape:cx="112.47932"
   inkscape:cy="100.46415"
   inkscape:window-width="1850"
   inkscape:window-height="1016"
   inkscape:window-x="0"
   inkscape:window-y="0"
   inkscape:window-maximized="1"
   inkscape:current-layer="svg12" />&#10;    &#10;<g
   id="g1"
   transform="scale(0.19608)"><rect
     x="0"
     y="0"
     width="1019.9929"
     height="1018.6308"
     style="fill:#c9b298;stroke-width:36.2304"
     id="rect1" /><rect
     x="85.912476"
     y="551.43213"
     width="380.65765"
     height="380.6655"
     style="fill:#90c3e6;stroke-width:13.5302"
     id="rect3" /><rect
     x="85.894592"
     y="80.694183"
     width="848.20374"
     height="848.22119"
     style="fill:#90c3e6;stroke-width:30.1488"
     id="rect6" /><path
     d="M 934.11271,928.87699 H 877.18424 V 127.70486 H 85.913976 V 80.710723 H 934.11271 Z"
     style="fill:#55768c;stroke-width:32.5705"
     id="path7"
     sodipodi:nodetypes="ccccccc" /><g
     id="g31"
     transform="matrix(1.5207863,0,0,1.5207863,-52.704408,1890.4515)"><g
       id="g34"
       transform="matrix(1.6827961,0,0,1.6827961,74.022689,-150.91044)"><path
         id="path11969"
         style="color:#000000;fill:url(#linearGradient6478);stroke:#000000;stroke-width:0.823678"
         inkscape:connector-curvature="0"
         d="m 192.8059,-384.75384 c -116.467252,30.99488 -92.00051,24.30632 -208.4247,55.46276 16.0043,9.26095 31.9364,18.64988 48.0361,27.74401 100.13809,-28.93633 59.726751,-18.84226 160.37443,-45.94479 0.009,-12.41592 -0.0189,-24.86969 0.0142,-37.26198 z"
         sodipodi:nodetypes="scccss" /><g
         id="g7429"
         transform="matrix(-2.0263047,0.54295624,-1.3575913,-0.7838215,876.79181,-162.88487)"><path
           id="path7431"
           style="fill:none;stroke:#000000;stroke-width:0.45917;stroke-linecap:round;stroke-linejoin:round"
           d="m 184.80654,347.35822 v 5.1767"
           inkscape:connector-curvature="0"
           inkscape:original-d="m 184.80654,347.35822 v 5.1767" /><path
           id="path7433"
           style="fill:none;stroke:#000000;stroke-width:0.45917;stroke-linecap:round;stroke-linejoin:round"
           d="m 181.14425,347.35822 v 5.1767"
           inkscape:connector-curvature="0"
           inkscape:original-d="m 181.14425,347.35822 v 5.1767" /><path
           id="path7435"
           style="fill:none;stroke:#000000;stroke-width:0.45917;stroke-linecap:round;stroke-linejoin:round"
           d="m 192.13113,347.35822 v 5.1767"
           inkscape:connector-curvature="0"
           inkscape:original-d="m 192.13113,347.35822 v 5.1767" /><path
           id="path7437"
           style="fill:none;stroke:#000000;stroke-width:0.76018;stroke-linecap:round;stroke-linejoin:round"
           d="m 195.79342,338.34621 v 14.18871"
           inkscape:connector-curvature="0"
           inkscape:original-d="m 195.79342,338.34621 v 14.18871" /><path
           id="path7439"
           style="fill:none;stroke:#000000;stroke-width:0.45917;stroke-linecap:round;stroke-linejoin:round"
           d="m 190.29998,347.35822 v 5.1767"
           inkscape:connector-curvature="0"
           inkscape:original-d="m 190.29998,347.35822 v 5.1767" /><path
           id="path7441"
           style="fill:none;stroke:#000000;stroke-width:0.45917;stroke-linecap:round;stroke-linejoin:round"
           d="m 193.96227,347.35822 v 5.1767"
           inkscape:connector-curvature="0"
           inkscape:original-d="m 193.96227,347.35822 v 5.1767" /><path
           id="path7443"
           style="fill:none;stroke:#000000;stroke-width:0.45917;stroke-linecap:round;stroke-linejoin:round"
           d="m 182.9754,347.35822 v 5.1767"
           inkscape:connector-curvature="0"
           inkscape:original-d="m 182.9754,347.35822 v 5.1767" /><path
           id="path7445"
           style="fill:none;stroke:#000000;stroke-width:0.45917;stroke-linecap:round;stroke-linejoin:round"
           d="m 188.46884,347.35822 v 5.1767"
           inkscape:connector-curvature="0"
           inkscape:original-d="m 188.46884,347.35822 v 5.1767" /><path
           id="path7447"
           style="fill:none;stroke:#000000;stroke-width:0.45917;stroke-linecap:round;stroke-linejoin:round"
           d="m 179.31311,347.35822 v 5.1767"
           inkscape:connector-curvature="0"
           inkscape:original-d="m 179.31311,347.35822 v 5.1767" /><path
           id="path7449"
           style="fill:none;stroke:#000000;stroke-width:0.59641;stroke-linecap:round;stroke-linejoin:round"
           d="m 186.63769,343.80126 v 8.73366"
           inkscape:connector-curvature="0"
           inkscape:original-d="m 186.63769,343.80126 v 8.73366" /></g><g
         id="g7495"
         transform="matrix(-2.0263047,0.54295624,-1.3575913,-0.7838215,950.10684,-182.52999)"><path
           id="path7497"
           style="fill:none;stroke:#000000;stroke-width:0.45917;stroke-linecap:round;stroke-linejoin:round"
           d="m 184.80654,347.35822 v 5.1767"
           inkscape:connector-curvature="0"
           inkscape:original-d="m 184.80654,347.35822 v 5.1767" /><path
           id="path7499"
           style="fill:none;stroke:#000000;stroke-width:0.45917;stroke-linecap:round;stroke-linejoin:round"
           d="m 181.14425,347.35822 v 5.1767"
           inkscape:connector-curvature="0"
           inkscape:original-d="m 181.14425,347.35822 v 5.1767" /><path
           id="path7501"
           style="fill:none;stroke:#000000;stroke-width:0.45917;stroke-linecap:round;stroke-linejoin:round"
           d="m 192.13113,347.35822 v 5.1767"
           inkscape:connector-curvature="0"
           inkscape:original-d="m 192.13113,347.35822 v 5.1767" /><path
           id="path7503"
           style="fill:none;stroke:#000000;stroke-width:0.76018;stroke-linecap:round;stroke-linejoin:round"
           d="m 195.79342,338.34621 v 14.18871"
           inkscape:connector-curvature="0"
           inkscape:original-d="m 195.79342,338.34621 v 14.18871" /><path
           id="path7505"
           style="fill:none;stroke:#000000;stroke-width:0.45917;stroke-linecap:round;stroke-linejoin:round"
           d="m 190.29998,347.35822 v 5.1767"
           inkscape:connector-curvature="0"
           inkscape:original-d="m 190.29998,347.35822 v 5.1767" /><path
           id="path7507"
           style="fill:none;stroke:#000000;stroke-width:0.45917;stroke-linecap:round;stroke-linejoin:round"
           d="m 193.96227,347.35822 v 5.1767"
           inkscape:connector-curvature="0"
           inkscape:original-d="m 193.96227,347.35822 v 5.1767" /><path
           id="path7509"
           style="fill:none;stroke:#000000;stroke-width:0.45917;stroke-linecap:round;stroke-linejoin:round"
           d="m 182.9754,347.35822 v 5.1767"
           inkscape:connector-curvature="0"
           inkscape:original-d="m 182.9754,347.35822 v 5.1767" /><path
           id="path7511"
           style="fill:none;stroke:#000000;stroke-width:0.45917;stroke-linecap:round;stroke-linejoin:round"
           d="m 188.46884,347.35822 v 5.1767"
           inkscape:connector-curvature="0"
           inkscape:original-d="m 188.46884,347.35822 v 5.1767" /><path
           id="path7513"
           style="fill:none;stroke:#000000;stroke-width:0.45917;stroke-linecap:round;stroke-linejoin:round"
           d="m 179.31311,347.35822 v 5.1767"
           inkscape:connector-curvature="0"
           inkscape:original-d="m 179.31311,347.35822 v 5.1767" /><path
           id="path7515"
           style="fill:none;stroke:#000000;stroke-width:0.59641;stroke-linecap:round;stroke-linejoin:round"
           d="m 186.63769,343.80126 v 8.73366"
           inkscape:connector-curvature="0"
           inkscape:original-d="m 186.63769,343.80126 v 8.73366" /></g><g
         id="g7517"
         transform="matrix(-2.0263047,0.54295624,-1.3575913,-0.7838215,913.46113,-172.70743)"><path
           id="path7519"
           style="fill:none;stroke:#000000;stroke-width:0.45917;stroke-linecap:round;stroke-linejoin:round"
           d="m 184.80654,347.35822 v 5.1767"
           inkscape:connector-curvature="0"
           inkscape:original-d="m 184.80654,347.35822 v 5.1767" /><path
           id="path7521"
           style="fill:none;stroke:#000000;stroke-width:0.45917;stroke-linecap:round;stroke-linejoin:round"
           d="m 181.14425,347.35822 v 5.1767"
           inkscape:connector-curvature="0"
           inkscape:original-d="m 181.14425,347.35822 v 5.1767" /><path
           id="path7523"
           style="fill:none;stroke:#000000;stroke-width:0.45917;stroke-linecap:round;stroke-linejoin:round"
           d="m 192.13113,347.35822 v 5.1767"
           inkscape:connector-curvature="0"
           inkscape:original-d="m 192.13113,347.35822 v 5.1767" /><path
           id="path7525"
           style="fill:none;stroke:#000000;stroke-width:0.76018;stroke-linecap:round;stroke-linejoin:round"
           d="m 195.79342,338.34621 v 14.18871"
           inkscape:connector-curvature="0"
           inkscape:original-d="m 195.79342,338.34621 v 14.18871" /><path
           id="path7527"
           style="fill:none;stroke:#000000;stroke-width:0.45917;stroke-linecap:round;stroke-linejoin:round"
           d="m 190.29998,347.35822 v 5.1767"
           inkscape:connector-curvature="0"
           inkscape:original-d="m 190.29998,347.35822 v 5.1767" /><path
           id="path7529"
           style="fill:none;stroke:#000000;stroke-width:0.45917;stroke-linecap:round;stroke-linejoin:round"
           d="m 193.96227,347.35822 v 5.1767"
           inkscape:connector-curvature="0"
           inkscape:original-d="m 193.96227,347.35822 v 5.1767" /><path
           id="path7531"
           style="fill:none;stroke:#000000;stroke-width:0.45917;stroke-linecap:round;stroke-linejoin:round"
           d="m 182.9754,347.35822 v 5.1767"
           inkscape:connector-curvature="0"
           inkscape:original-d="m 182.9754,347.35822 v 5.1767" /><path
           id="path7533"
           style="fill:none;stroke:#000000;stroke-width:0.45917;stroke-linecap:round;stroke-linejoin:round"
           d="m 188.46884,347.35822 v 5.1767"
           inkscape:connector-curvature="0"
           inkscape:original-d="m 188.46884,347.35822 v 5.1767" /><path
           id="path7535"
           style="fill:none;stroke:#000000;stroke-width:0.45917;stroke-linecap:round;stroke-linejoin:round"
           d="m 179.31311,347.35822 v 5.1767"
           inkscape:connector-curvature="0"
           inkscape:original-d="m 179.31311,347.35822 v 5.1767" /><path
           id="path7537"
           style="fill:none;stroke:#000000;stroke-width:0.59641;stroke-linecap:round;stroke-linejoin:round"
           d="m 186.63769,343.80126 v 8.73366"
           inkscape:connector-curvature="0"
           inkscape:original-d="m 186.63769,343.80126 v 8.73366" /></g><path
         id="path9202"
         d="m 165.03827,-352.47634 c -0.74424,0.0885 -1.37088,0.10484 -1.88012,0.0484 -0.50643,-0.0595 -0.89645,-0.16811 -1.17004,-0.32605 -0.46738,-0.26984 -0.53292,-0.57871 -0.19669,-0.92658 0.3419,-0.34937 1.10624,-0.68307 2.29305,-1.00108 1.17557,-0.31498 2.23921,-0.4711 3.19092,-0.46836 0.95739,0.001 1.66978,0.13671 2.13716,0.40659 0.29066,0.16788 0.40095,0.35751 0.33085,0.569 -0.073,0.20991 -0.31959,0.42171 -0.73986,0.63549 0.82585,-0.10318 1.54989,-0.1249 2.17213,-0.0654 0.62787,0.0583 1.11706,0.18842 1.4676,0.39089 0.57852,0.33402 0.68314,0.70348 0.31385,1.10837 -0.36362,0.40339 -1.15011,0.76708 -2.35939,1.09111 -1.12497,0.30143 -2.21107,0.46598 -3.25845,0.49368 -1.23649,0.0326 -2.1625,-0.12892 -2.77794,-0.48424 -0.33917,-0.19574 -0.48379,-0.4196 -0.43416,-0.6714 0.0468,-0.25347 0.35055,-0.52031 0.91098,-0.80059 m -0.72043,-0.82958 c 0.2394,0.13813 0.55816,0.21062 0.95657,0.217 0.40395,0.005 0.82805,-0.0519 1.2724,-0.17119 0.44995,-0.12066 0.74302,-0.25567 0.87902,-0.40537 0.13317,-0.15135 0.08,-0.29609 -0.15938,-0.43432 -0.22502,-0.12986 -0.53965,-0.19739 -0.9436,-0.20235 -0.40114,-0.007 -0.82111,0.0465 -1.25979,0.1641 -0.45562,0.12207 -0.74999,0.25879 -0.88321,0.41009 -0.13317,0.15135 -0.0871,0.29196 0.1379,0.42195 m 2.46508,1.60873 c 0.33059,0.19078 0.7545,0.29531 1.27153,0.31335 0.52272,0.0165 1.03437,-0.0423 1.53499,-0.17638 0.48933,-0.13105 0.80592,-0.29066 0.9499,-0.47857 0.14097,-0.1896 0.0435,-0.38143 -0.29285,-0.57556 -0.29352,-0.16954 -0.69176,-0.26153 -1.19467,-0.27612 -0.50579,-0.0165 -1.00896,0.0427 -1.50956,0.17685 -0.57934,0.15537 -0.9113,0.3297 -0.99579,0.52338 -0.0789,0.19221 -9e-5,0.35657 0.23645,0.49312"
         style="fill:#000000;stroke-width:2.36119"
         inkscape:connector-curvature="0" /><g
         id="g7583"
         transform="matrix(-2.0263047,0.54295624,-1.3575913,-0.7838215,1011.9981,-199.73079)"><path
           id="path7585"
           style="fill:none;stroke:#000000;stroke-width:0.45917;stroke-linecap:round;stroke-linejoin:round"
           d="m 184.80654,347.35822 v 5.1767"
           inkscape:connector-curvature="0"
           inkscape:original-d="m 184.80654,347.35822 v 5.1767" /><path
           id="path7587"
           style="fill:none;stroke:#000000;stroke-width:0.45917;stroke-linecap:round;stroke-linejoin:round"
           d="m 181.14425,347.35822 v 5.1767"
           inkscape:connector-curvature="0"
           inkscape:original-d="m 181.14425,347.35822 v 5.1767" /><path
           id="path7589"
           style="fill:none;stroke:#000000;stroke-width:0.45917;stroke-linecap:round;stroke-linejoin:round"
           d="m 192.13113,347.35822 v 5.1767"
           inkscape:connector-curvature="0"
           inkscape:original-d="m 192.13113,347.35822 v 5.1767" /><path
           id="path7591"
           style="fill:none;stroke:#000000;stroke-width:0.76018;stroke-linecap:round;stroke-linejoin:round"
           d="m 195.79342,338.34621 v 14.18871"
           inkscape:connector-curvature="0"
           inkscape:original-d="m 195.79342,338.34621 v 14.18871" /><path
           id="path7593"
           style="fill:none;stroke:#000000;stroke-width:0.45917;stroke-linecap:round;stroke-linejoin:round"
           d="m 190.29998,347.35822 v 5.1767"
           inkscape:connector-curvature="0"
           inkscape:original-d="m 190.29998,347.35822 v 5.1767" /><path
           id="path7595"
           style="fill:none;stroke:#000000;stroke-width:0.45917;stroke-linecap:round;stroke-linejoin:round"
           d="m 193.96227,347.35822 v 5.1767"
           inkscape:connector-curvature="0"
           inkscape:original-d="m 193.96227,347.35822 v 5.1767" /><path
           id="path7597"
           style="fill:none;stroke:#000000;stroke-width:0.45917;stroke-linecap:round;stroke-linejoin:round"
           d="m 182.9754,347.35822 v 5.1767"
           inkscape:connector-curvature="0"
           inkscape:original-d="m 182.9754,347.35822 v 5.1767" /><path
           id="path7599"
           style="fill:none;stroke:#000000;stroke-width:0.45917;stroke-linecap:round;stroke-linejoin:round"
           d="m 188.46884,347.35822 v 5.1767"
           inkscape:connector-curvature="0"
           inkscape:original-d="m 188.46884,347.35822 v 5.1767" /><path
           id="path7601"
           style="fill:none;stroke:#000000;stroke-width:0.45917;stroke-linecap:round;stroke-linejoin:round"
           d="m 179.31311,347.35822 v 5.1767"
           inkscape:connector-curvature="0"
           inkscape:original-d="m 179.31311,347.35822 v 5.1767" /><path
           id="path7603"
           style="fill:none;stroke:#000000;stroke-width:0.59641;stroke-linecap:round;stroke-linejoin:round"
           d="m 186.63769,343.80126 v 8.73366"
           inkscape:connector-curvature="0"
           inkscape:original-d="m 186.63769,343.80126 v 8.73366" /></g><g
         id="g33"
         transform="translate(143.25039,-37.732924)"><path
           id="path6014"
           style="color:#000000;opacity:0.1814;fill:url(#linearGradient6480);stroke-width:2.36119"
           inkscape:label="#ccc"
           inkscape:connector-curvature="0"
           d="m -147.28375,-296.27996 c -1.21677,-0.0335 -2.32857,0.0491 -3.24664,0.29515 l -0.14758,0.0737 c -0.0135,-0.009 0.0127,-0.0645 0,-0.0737 l -9.2972,2.50877 c -0.22953,0.0614 -0.39547,0.14545 -0.59029,0.22124 h -0.0738 c -1.64426,0.67863 -1.628,1.42704 -1.62332,2.21362 v 26.70981 c 0,3.82419 6.31406,11.50373 11.95354,13.79834 2.16327,0.88018 4.87515,-1.53773 7.00991,-0.5903 3.16234,1.40361 3.67259,5.9809 6.2718,8.26417 3.84166,3.37462 13.35537,7.67388 13.35537,7.67388 6.62716,3.82466 11.87964,3.82419 11.87964,0 v -25.75117 c 0,0 -0.0947,-1.32668 0.14757,-1.91847 0.16476,-0.40265 0.81166,-0.95923 0.81166,-0.95923 l 10.47779,-3.09907 c 0.22951,-0.0614 0.469265,-0.14544 0.664087,-0.22124 0.02692,-0.009 0.04805,-0.0645 0.07379,-0.0737 2.826583,-1.16322 1.817291,-3.84803 -2.508767,-6.3457 l -12.32259,-7.15749 c 0.0963,-0.007 0.20589,0.0142 0.29514,0 h 0.0738 l 12.98656,-3.46812 c 0.093,-0.0236 0.14462,-0.042 0.22136,-0.0737 0.991824,-0.40917 0.63764,-1.33423 -0.88544,-2.21361 l -11.80597,-6.78843 c -1.53229,-0.88467 -3.68322,-1.40255 -5.01753,-1.1806 h -0.0738 l -12.98656,3.46812 c -0.093,0.0236 -0.14486,0.0425 -0.22136,0.0737 -0.0433,0.0165 -0.0355,0.0541 -0.0738,0.0737 l -3.61546,-2.06604 c -3.4922,-2.01632 -8.08189,-3.29717 -11.73229,-3.39422 z m -5.46026,26.63662 a 2.3614287,2.3614287 0 0 1 0.14757,0 2.3614287,2.3614287 0 0 1 0.0738,0 2.3614287,2.3614287 0 0 1 0.14757,0 2.3614287,2.3614287 0 0 1 0.0738,0 2.3614287,2.3614287 0 0 1 0.14758,0 2.3614287,2.3614287 0 0 1 0.0738,0 2.3614287,2.3614287 0 0 1 1.25439,0.44272 2.3614287,2.3614287 0 0 1 0.22136,0.14757 2.3614287,2.3614287 0 0 1 0,0.0737 2.3614287,2.3614287 0 0 1 0.14757,0.14758 c 0.85638,0.99227 1.75118,1.92161 2.58267,2.73001 0.83138,0.80852 1.62332,1.49437 2.43487,2.13983 0.81168,0.64546 1.56389,1.19401 2.36119,1.69711 1.61135,1.0219 3.21122,1.79464 4.79605,2.36119 0.78451,0.28041 1.5013,0.464 2.28741,0.66408 1.59472,0.41012 3.16234,0.67941 4.79605,0.88545 a 2.3614287,2.3614287 0 0 1 0.22137,0 2.3614287,2.3614287 0 0 1 0.22136,0.0737 2.3614287,2.3614287 0 0 1 0.22136,0 2.3614287,2.3614287 0 0 1 0.22136,0.14758 2.3614287,2.3614287 0 0 1 1.25438,1.03302 2.3614287,2.3614287 0 0 1 0,0.0737 2.3614287,2.3614287 0 0 1 0.22137,0.59029 2.3614287,2.3614287 0 0 1 0,0.0737 2.3614287,2.3614287 0 0 1 -0.0738,0.88545 2.3614287,2.3614287 0 0 1 -0.14758,0.44272 2.3614287,2.3614287 0 0 1 -0.0738,0.22125 2.3614287,2.3614287 0 0 1 -0.14758,0.22124 2.3614287,2.3614287 0 0 1 -0.29515,0.36894 2.3614287,2.3614287 0 0 1 -0.44272,0.22124 2.3614287,2.3614287 0 0 1 -0.36894,0.22125 2.3614287,2.3614287 0 0 1 -0.66408,0.14757 2.3614287,2.3614287 0 0 1 -0.0738,0 2.3614287,2.3614287 0 0 1 -0.14757,0 2.3614287,2.3614287 0 0 1 -0.51651,-0.0737 c -1.59603,-0.20117 -3.20532,-0.46884 -4.86996,-0.88545 -0.151,-0.0375 -0.29126,-0.10767 -0.44273,-0.14757 -0.0222,-0.005 -0.0516,0.007 -0.0738,0 -0.91241,-0.24183 -1.803,-0.47524 -2.73001,-0.81166 -3.70849,-1.34571 -7.49112,-3.53329 -11.28933,-7.15725 -0.94958,-0.90603 -1.9316,-1.92902 -2.87782,-3.02516 a 2.3614287,2.3614287 0 0 1 -0.14758,-0.14757 2.3614287,2.3614287 0 0 1 -0.0738,-0.14758 2.3614287,2.3614287 0 0 1 -0.0738,-0.0737 2.3614287,2.3614287 0 0 1 0,-0.0737 2.3614287,2.3614287 0 0 1 -0.0738,-0.14758 2.3614287,2.3614287 0 0 1 -0.0738,-0.14757 2.3614287,2.3614287 0 0 1 0,-0.0737 2.3614287,2.3614287 0 0 1 -0.0738,-0.14758 2.3614287,2.3614287 0 0 1 0,-0.0737 2.3614287,2.3614287 0 0 1 0,-0.14757 2.3614287,2.3614287 0 0 1 -0.0738,-0.0737 2.3614287,2.3614287 0 0 1 0,-0.14757 2.3614287,2.3614287 0 0 1 0,-0.0737 2.3614287,2.3614287 0 0 1 0,-0.22125 2.3614287,2.3614287 0 0 1 0,-0.0737 2.3614287,2.3614287 0 0 1 0.0738,-0.36893 2.3614287,2.3614287 0 0 1 0,-0.0737 2.3614287,2.3614287 0 0 1 0.0738,-0.14758 2.3614287,2.3614287 0 0 1 0,-0.0737 2.3614287,2.3614287 0 0 1 0.0738,-0.14757 2.3614287,2.3614287 0 0 1 0,-0.0737 2.3614287,2.3614287 0 0 1 0.14758,-0.14757 2.3614287,2.3614287 0 0 1 0,-0.0737 2.3614287,2.3614287 0 0 1 0.14757,-0.0737 2.3614287,2.3614287 0 0 1 0,-0.0737 2.3614287,2.3614287 0 0 1 0.14758,-0.14758 2.3614287,2.3614287 0 0 1 0,-0.0737 2.3614287,2.3614287 0 0 1 0.14757,-0.0737 2.3614287,2.3614287 0 0 1 0.22136,-0.22124 2.3614287,2.3614287 0 0 1 0.0738,-0.0737 2.3614287,2.3614287 0 0 1 0.22136,-0.0737 2.3614287,2.3614287 0 0 1 0.0738,0 2.3614287,2.3614287 0 0 1 0.0738,-0.0737 2.3614287,2.3614287 0 0 1 0.44272,-0.14757 z" /><path
           id="rect3807"
           style="color:#000000;fill:url(#radialGradient6482);stroke-width:2.36119"
           inkscape:connector-curvature="0"
           d="m -147.28375,-296.27996 c -1.21677,-0.0335 -2.32857,0.0491 -3.24664,0.29515 l -0.14758,0.0737 c -0.0135,-0.009 0.0127,-0.0645 0,-0.0737 l -9.2972,2.50877 c -0.22953,0.0614 -0.39547,0.14545 -0.59029,0.22124 h -0.0738 c -1.64426,0.67863 -1.628,1.42704 -1.62332,2.21362 v 26.70981 c 0,3.82419 6.31406,11.50373 11.95354,13.79834 2.16327,0.88018 4.87515,-1.53773 7.00991,-0.5903 3.16234,1.40361 3.67259,5.9809 6.2718,8.26417 3.84166,3.37462 13.35537,7.67388 13.35537,7.67388 6.62716,3.82466 11.87964,3.82419 11.87964,0 v -25.75117 c 0,0 -0.0947,-1.32668 0.14757,-1.91847 0.16476,-0.40265 0.81166,-0.95923 0.81166,-0.95923 l 10.47779,-3.09907 c 0.22951,-0.0614 0.469265,-0.14544 0.664087,-0.22124 0.02692,-0.009 0.04805,-0.0645 0.07379,-0.0737 2.826583,-1.16322 1.817291,-3.84803 -2.508767,-6.3457 l -12.32259,-7.15749 c 0.0963,-0.007 0.20589,0.0142 0.29514,0 h 0.0738 l 12.98656,-3.46812 c 0.093,-0.0236 0.14462,-0.042 0.22136,-0.0737 0.991824,-0.40917 0.63764,-1.33423 -0.88544,-2.21361 l -11.80597,-6.78843 c -1.53229,-0.88467 -3.68322,-1.40255 -5.01753,-1.1806 h -0.0738 l -12.98656,3.46812 c -0.093,0.0236 -0.14486,0.0425 -0.22136,0.0737 -0.0433,0.0165 -0.0355,0.0541 -0.0738,0.0737 l -3.61546,-2.06604 c -3.4922,-2.01632 -8.08189,-3.29717 -11.73229,-3.39422 z m -5.31269,26.63662 a 2.3614287,2.3614287 0 0 1 2.13983,0.81166 c 6.851,7.93833 12.81632,9.6653 19.25836,10.47779 a 2.3614287,2.3614287 0 1 1 -0.5903,4.64871 c -6.97685,-0.8798 -14.71471,-3.25726 -22.28375,-12.02744 a 2.3614287,2.3614287 0 0 1 1.47574,-3.91061 z" /><path
           id="path4671"
           style="color:#000000;fill:url(#radialGradient6484);stroke-width:2.36119"
           inkscape:connector-curvature="0"
           d="m -112.71117,-289.05471 c 2.32452,1.34208 2.72269,2.82824 0.88943,3.3196 -1.8333,0.49122 -5.20383,-0.19857 -7.52842,-1.5406 -2.32453,-1.34208 -2.72269,-2.82824 -0.88944,-3.31937 1.8333,-0.49125 5.20383,0.19858 7.52843,1.54058 z" /><path
           id="path4674"
           d="m -121.33425,-286.83519 c 2.32453,1.34208 2.72269,2.82824 0.88944,3.3196 -1.8333,0.49123 -5.20383,-0.19857 -7.52843,-1.5406 -2.32452,-1.34206 -2.72269,-2.82824 -0.88943,-3.31937 1.8333,-0.49124 5.20383,0.19858 7.52842,1.54059 z"
           style="color:#000000;fill:url(#radialGradient6486);stroke-width:2.36119"
           inkscape:connector-curvature="0" /><path
           id="path4730"
           d="m -112.71117,-289.76307 c 2.32452,1.34208 2.72269,2.82824 0.88943,3.3196 -1.8333,0.49125 -5.20383,-0.19857 -7.52842,-1.54058 -2.32453,-1.34208 -2.72269,-2.82824 -0.88944,-3.3196 1.8333,-0.49122 5.20383,0.19858 7.52843,1.54058 z"
           style="color:#000000;fill:url(#linearGradient6488);stroke-width:2.36119"
           inkscape:connector-curvature="0" /><path
           id="path4732"
           style="color:#000000;fill:url(#linearGradient6490);stroke-width:2.36119"
           inkscape:connector-curvature="0"
           d="m -121.33425,-287.47271 c 2.32453,1.34208 2.72269,2.82824 0.88944,3.3196 -1.8333,0.49122 -5.20383,-0.19857 -7.52843,-1.54061 -2.32452,-1.34205 -2.72269,-2.82823 -0.88943,-3.31936 1.8333,-0.49125 5.20383,0.19858 7.52842,1.54058 z" /></g><path
         id="path5468"
         style="color:#000000;fill:url(#radialGradient6492);stroke-width:2.36119"
         d="m 186.17094,-563.06403 c -16.94652,0.39146 -34.73551,5.25176 -50.54369,18.96321 -25.74408,32.66946 -40.865161,52.87418 -37.410736,100.12873 v 49.88019 c 0,6.94191 -6.063306,16.40203 -1.033022,21.47222 12.638048,12.73792 48.978218,35.38955 73.123778,41.91117 17.66195,4.76984 32.61751,-18.82626 49.21669,-28.85142 0.0213,-0.0142 0.0524,0.0142 0.0737,0 18.44706,-1.04589 37.87589,-10.53446 53.79033,-27.8904 0.0503,-0.0479 0.0975,-0.0996 0.14758,-0.14758 2.00566,-1.92031 4.00057,-3.97861 5.90298,-6.12446 18.6938,-21.08569 27.68026,-48.20611 26.41702,-72.82862 0.62862,-5.75612 0.94823,-11.49925 0.81166,-17.19232 -0.33767,-14.07719 -7.33552,-28.20917 -16.52835,-38.81328 -1.21752,-1.40435 -2.53828,-2.73143 -3.9106,-4.05842 -16.82822,-9.7378 -28.33904,-12.48268 -45.59699,-22.49225 -15.25331,-5.64538 -27.98958,-11.76582 -37.85701,-13.07321 -5.34881,-0.70865 -10.95333,-1.01593 -16.60201,-0.88545 z"
         sodipodi:nodetypes="sccsssccccscssccss"
         inkscape:connector-curvature="0" /><path
         id="path9866"
         style="color:#000000;opacity:0.50431;fill:url(#radialGradient6494);filter:url(#filter9916)"
         inkscape:connector-curvature="0"
         d="m 535.56,50.903 c -9.9662,0.47008 -20.474,4.46 -28.844,11.719 -10.903,13.836 -17.307,22.424 -15.844,42.437 v 21.125 c 0,2.3554 -1.6589,5.405 -1.2188,7.625 h 0.71875 c -0.44014,-2.22 1.2188,-5.2696 1.2188,-7.625 v -21.125 c -1.463,-20.013 4.9412,-28.601 15.844,-42.437 8.3693,-7.2588 18.878,-11.249 28.844,-11.719 -0.23806,0.0072 -0.48003,-0.01126 -0.71875,0 z"
         transform="matrix(2.3611926,0,0,2.3611926,-1039.4297,-676.09668)" /><path
         id="path5370"
         style="color:#000000;fill:url(#linearGradient6496);stroke:url(#linearGradient6498);stroke-width:0.907501"
         d="m 131.20237,-541.95969 c -8.12911,8.97111 -15.26936,18.85152 -21.10315,29.44171 -4.51366,6.7412 -3.05798,7.91755 3.09906,11.43714 16.41289,9.38173 33.07323,18.9141 51.57789,23.31678 2.96047,0.76491 5.32095,0.27121 7.30506,-0.88545 3.84072,-7.12159 8.53075,-13.94331 14.09349,-20.21771 31.19843,-35.19121 77.33142,-40.1875 103.08022,-11.142 25.75117,29.04503 21.38556,81.09753 -9.81359,116.28874 -25.09711,28.30834 -59.9129,37.04947 -85.96158,24.27542 -0.34244,-0.0328 -0.77898,-0.0408 -1.10681,-0.0737 -19.15871,8.1022 -20.94354,23.30946 -42.20631,22.28376 -18.56417,-4.01474 -37.37296,-12.97523 -48.1825,-28.11236 -3.782393,-5.29639 -3.002491,-18.49145 -3.836937,-19.18469 -3.434827,-2.85303 -5.890467,13.4706 -5.091203,19.62741 1.505354,4.85485 7.24933,8.13573 11.06809,11.28934 20.30413,14.53762 42.16618,27.40164 66.25979,34.60563 14.09419,3.28938 25.23878,-8.56168 34.90078,-16.74982 6.43756,-4.66194 11.89097,-12.89707 20.51287,-12.91289 36.16402,-4.9944 64.04971,-35.21719 75.26301,-68.25264 6.66777,-22.64785 14.20328,-47.02315 8.04269,-70.61382 -3.42821,-11.11626 -11.13656,-19.56343 -19.33226,-27.00732 -18.30727,-16.6254 -40.95253,-28.74516 -64.19611,-37.18879 -9.45303,-3.43388 -13.19033,-5.67937 -29.72741,-5.15826 -16.53732,0.52105 -44.20389,4.60362 -64.64709,24.93419 z"
         sodipodi:nodetypes="ccsccssscccsscccccccaacc"
         inkscape:connector-curvature="0" /><path
         id="path4823"
         d="m 935.01,609.38 c 19.871,-23.202 22.684,-57.534 6.284,-76.684 -16.4,-19.149 -45.804,-15.864 -65.674,7.3375 -19.871,23.202 -22.684,57.534 -6.2841,76.684 16.4,19.149 45.804,15.864 65.675,-7.3374 z"
         style="color:#000000;fill:none;filter:url(#filter7092)"
         transform="matrix(0.9002519,0,0,0.86967446,-582.16114,-949.57001)"
         inkscape:connector-curvature="0" /><path
         id="path5517"
         sodipodi:nodetypes="cccccccccccccccccc"
         style="color:#000000;fill:url(#linearGradient6502);stroke-width:2.36119"
         inkscape:connector-curvature="0"
         d="m 104.99313,-457.80442 c -0.6124,0.0418 -1.19521,0.35715 -1.52701,0.91019 -3.164,5.26333 -4.179072,10.49739 -7.342834,15.75576 -0.132699,0.2212 -0.227383,0.45345 -0.259897,0.69049 -0.001,0.0101 0.001,0.0215 0,0.0313 -0.216049,0.30046 -0.213924,0.90642 0.09752,1.72622 3.163525,8.31423 4.178841,9.06816 7.342601,17.38782 0.33182,0.87357 0.91465,1.75199 1.52703,2.38528 0.36742,0.37996 0.76051,0.67476 1.10466,0.81603 l 36.5182,20.46351 c 0.91777,0.37671 1.24567,-0.45406 0.71478,-1.85176 -3.15597,-8.28779 -6.31548,-12.55942 -9.45445,-20.84036 -0.0394,-0.10366 -0.0841,-0.21062 -0.1301,-0.31388 0.10838,-0.10719 0.21062,-0.24008 0.29243,-0.37661 3.13921,-5.24846 6.29848,-10.48558 9.45445,-15.72436 0.5309,-0.88483 0.20283,-2.03239 -0.71475,-2.54229 l -36.51821,-18.26666 c -0.34416,-0.19119 -0.73723,-0.27612 -1.10466,-0.25109 z" /><path
         id="rect5522"
         style="color:#000000;fill:url(#linearGradient6504);filter:url(#filter9928)"
         d="m 817.61,585.23 c 0,0 -6.5328,11.225 -9.7817,16.848 -0.10265,0.1771 -0.23068,0.34944 -0.36639,0.48852 0.0575,0.13394 0.11347,0.27258 0.16284,0.40709 3.3932,9.266 10.217,22.871 10.217,22.871 l 1.7795,-0.48879 0.13904,-38.982 z"
         sodipodi:nodetypes="cccccccc"
         inkscape:connector-curvature="0"
         transform="matrix(1.0396803,0,0,1.0043569,-708.36689,-1026.9463)" /><path
         id="path4632"
         style="color:#000000;text-indent:0;text-transform:none;fill:url(#radialGradient6512);filter:url(#filter4669)"
         inkscape:connector-curvature="0"
         transform="matrix(0.96714449,-1.7894062,1.6751481,1.0331162,-561.12292,379.49808)"
         d="m 497.7,105.5 -3.1562,5.4375 c -4.143,12.627 -2.5957,26.123 5.2188,34.938 1.8456,2.0818 3.9331,3.7537 6.1875,5.0625 -0.86187,-0.89281 -1.6769,-1.8186 -2.4375,-2.8125 -1.0602,-0.85349 -2.0867,-1.7783 -3.0312,-2.8438 -8.7246,-9.8409 -9.4435,-25.921 -2.7812,-39.781 z" /><path
         id="path4689"
         style="color:#000000;fill:#ececec;filter:url(#filter4694)"
         inkscape:connector-curvature="0"
         d="m 555.44,67.875 c -9.0965,-4.28e-4 -18.859,4.4985 -26.562,13.188 -11.983,13.516 -14.982,32.716 -7.9688,45.844 -5.9063,-13.475 -2.529,-32.057 9.25,-45.344 7.9033,-8.9146 17.905,-13.544 27.25,-13.625 -0.64454,-0.0464 -1.3161,-0.06247 -1.9688,-0.0625 z"
         transform="matrix(2.3611926,0,0,2.3611926,-1068.9446,-700.38155)" /><g
         id="g30"
         transform="matrix(1.1882683,0,0,1.1882683,-49.190749,82.635819)"><circle
           style="fill:#000000;fill-opacity:1;stroke:none;stroke-width:5;stroke-dasharray:none;stroke-opacity:1"
           id="path29"
           cx="218.0844"
           cy="-453.66138"
           r="9.0124369" /><circle
           style="fill:#000000;fill-opacity:1;stroke:none;stroke-width:5;stroke-dasharray:none;stroke-opacity:1"
           id="circle29"
           cx="265.94141"
           cy="-453.66138"
           r="9.0124369" /><path
           style="fill:#000000;fill-opacity:1;stroke:#000000;stroke-width:5;stroke-dasharray:none;stroke-opacity:1"
           d="m 280.02663,-427.96968 c -10.08957,11.67889 -24.3147,18.35362 -39.24134,18.41285 -14.92664,0.0592 -29.19837,-6.50241 -39.36989,-18.1009 z"
           id="path30"
           sodipodi:nodetypes="cscc" /></g></g></g></g></svg>
